<svg width="25" height="11" viewBox="0 0 25 11" fill="none" xmlns="http://www.w3.org/2000/svg">
<path d="M2.88462 10.9375C2.11957 10.9375 1.38585 10.4107 0.844884 9.47303C0.303914 8.53535 0 7.26358 0 5.9375C0 4.61142 0.303914 3.33965 0.844884 2.40197C1.38585 1.46428 2.11957 0.9375 2.88462 0.9375C3.64966 0.9375 4.38338 1.46428 4.92435 2.40197C5.46532 3.33965 5.76923 4.61142 5.76923 5.9375C5.76923 7.26358 5.46532 8.53535 4.92435 9.47303C4.38338 10.4107 3.64966 10.9375 2.88462 10.9375ZM12.5 10.9375C11.735 10.9375 11.0012 10.4107 10.4603 9.47303C9.9193 8.53535 9.61538 7.26358 9.61538 5.9375C9.61538 4.61142 9.9193 3.33965 10.4603 2.40197C11.0012 1.46428 11.735 0.9375 12.5 0.9375C13.265 0.9375 13.9988 1.46428 14.5397 2.40197C15.0807 3.33965 15.3846 4.61142 15.3846 5.9375C15.3846 7.26358 15.0807 8.53535 14.5397 9.47303C13.9988 10.4107 13.265 10.9375 12.5 10.9375ZM22.1154 10.9375C21.3503 10.9375 20.6166 10.4107 20.0757 9.47303C19.5347 8.53535 19.2308 7.26358 19.2308 5.9375C19.2308 4.61142 19.5347 3.33965 20.0757 2.40197C20.6166 1.46428 21.3503 0.9375 22.1154 0.9375C22.8804 0.9375 23.6141 1.46428 24.1551 2.40197C24.6961 3.33965 25 4.61142 25 5.9375C25 7.26358 24.6961 8.53535 24.1551 9.47303C23.6141 10.4107 22.8804 10.9375 22.1154 10.9375Z" fill="#2F80ED"/>
</svg>
