<?xml version="1.0" encoding="iso-8859-1"?>
<!-- Generator: Adobe Illustrator 19.0.0, SVG Export Plug-In . SVG Version: 6.00 Build 0)  -->
<svg version="1.1" id="Layer_1" xmlns="http://www.w3.org/2000/svg" xmlns:xlink="http://www.w3.org/1999/xlink" x="0px" y="0px"
	 viewBox="0 0 512 512" style="enable-background:new 0 0 512 512;" xml:space="preserve">
<g>
	<g>
		<path d="M480,309.333c0-15.125-31.168-70.912-46.72-97.813c1.451-7.68,4.053-25.237,4.053-51.52c0-45.547-60.288-160-202.667-160
			C94.869,0,32,106.048,32,181.333c0,53.248,31.467,107.819,56.725,151.616c14.72,25.536,28.608,49.643,28.608,61.717
			c0,27.157-44.16,80.981-61.163,99.435c-2.88,3.115-3.648,7.616-1.941,11.499c1.707,3.904,5.547,6.4,9.771,6.4h234.667
			c5.888,0,10.368-3.115,10.368-9.003c3.776-7.616,41.643-28.075,76.693-33.813C411.989,464.896,448,458.987,448,426.667
			c0-14.059-4.885-21.312-8.085-26.112c-2.176-3.221-2.581-4.011-3.925-5.973c5.76,0.747,11.179-3.371,11.925-9.259
			c0.299-2.261-0.171-4.459-1.173-6.336l8.789-8.789c2.859-2.859,3.861-7.083,2.581-10.923l-7.125-21.376
			C463.253,333.675,480,324.971,480,309.333z M330.667,245.333c0,17.941-18.752,32-42.667,32s-42.667-14.059-42.667-32
			c0-17.941,18.752-32,42.667-32c7.872,0,15.061,1.643,21.333,4.309V109.013L224,126.08v140.587c0,17.941-18.752,32-42.667,32
			s-42.667-14.059-42.667-32c0-17.941,18.752-32,42.667-32c7.872,0,15.061,1.643,21.333,4.309V117.333
			c0-5.077,3.584-9.451,8.576-10.453l106.667-21.333c3.157-0.619,6.379,0.192,8.853,2.219c2.475,2.005,3.904,5.056,3.904,8.235
			V245.333z"/>
	</g>
</g>
<g>
</g>
<g>
</g>
<g>
</g>
<g>
</g>
<g>
</g>
<g>
</g>
<g>
</g>
<g>
</g>
<g>
</g>
<g>
</g>
<g>
</g>
<g>
</g>
<g>
</g>
<g>
</g>
<g>
</g>
</svg>
