<svg width="10" height="10" viewBox="0 0 10 10" fill="none" xmlns="http://www.w3.org/2000/svg">
<path d="M9.67679 3.52128L6.67898 3.06505L5.33889 0.220085C5.30228 0.142191 5.24207 0.0791345 5.16768 0.0408059C4.98113 -0.0556336 4.75444 0.0247327 4.66116 0.220085L3.32106 3.06505L0.323258 3.52128C0.240609 3.53365 0.165044 3.57445 0.107189 3.63627C0.0372466 3.71155 -0.00129512 3.81283 3.3232e-05 3.91785C0.00136159 4.02287 0.0424513 4.12305 0.114274 4.19636L2.28323 6.41076L1.7708 9.53763C1.75878 9.61037 1.76647 9.68517 1.79299 9.75357C1.81951 9.82197 1.86379 9.88121 1.92083 9.92459C1.97787 9.96797 2.04537 9.99375 2.11568 9.999C2.186 10.0042 2.25631 9.98876 2.31865 9.9543L5.00002 8.47803L7.6814 9.9543C7.7546 9.9951 7.83962 10.0087 7.92108 9.99386C8.12653 9.95677 8.26467 9.75276 8.22925 9.53763L7.71682 6.41076L9.88577 4.19636C9.94481 4.13578 9.98377 4.05665 9.99558 3.9701C10.0275 3.75373 9.88341 3.55343 9.67679 3.52128Z" fill="#FFF73E"/>
</svg>
