<svg width="20" height="26" viewBox="0 0 20 26" fill="none" xmlns="http://www.w3.org/2000/svg">
<path d="M10 16.727C12.3714 16.727 14.2714 14.9638 14.2714 12.7796L14.2857 4.88487C14.2857 2.70066 12.3714 0.9375 10 0.9375C7.62857 0.9375 5.71429 2.70066 5.71429 4.88487V12.7796C5.71429 14.9638 7.62857 16.727 10 16.727ZM17.5714 12.7796C17.5714 16.727 13.9429 19.4901 10 19.4901C6.05714 19.4901 2.42857 16.727 2.42857 12.7796H0C0 17.2796 3.88571 20.977 8.57143 21.6217V25.9375H11.4286V21.6217C16.1143 20.9901 20 17.2796 20 12.7796H17.5714Z" fill="#2F80ED"/>
</svg>
